<?xml version="1.0" standalone="no"?>
<!DOCTYPE svg PUBLIC "-//W3C//DTD SVG 20010904//EN"
 "http://www.w3.org/TR/2001/REC-SVG-20010904/DTD/svg10.dtd">
<svg version="1.0" xmlns="http://www.w3.org/2000/svg"
 width="980.000000pt" height="788.000000pt" viewBox="0 0 980.000000 788.000000"
 preserveAspectRatio="xMidYMid meet">
<metadata>
Created by potrace 1.15, written by Peter Selinger 2001-2017
</metadata>
<g transform="translate(0.000000,788.000000) scale(0.100000,-0.100000)"
fill="#000000" stroke="none">
<path d="M8855 7873 c-66 -8 -173 -55 -240 -106 -74 -56 -131 -130 -163 -212
l-20 -50 -83 -2 c-508 -14 -813 -45 -1204 -124 -559 -112 -1199 -326 -1540
-516 -437 -243 -836 -634 -1110 -1089 -189 -314 -409 -821 -485 -1119 -13 -49
-27 -94 -31 -99 -5 -6 -120 101 -271 250 -357 353 -421 402 -650 498 -226 95
-342 109 -828 104 l-365 -4 -144 -38 c-243 -64 -439 -143 -606 -246 -418 -257
-664 -667 -755 -1258 -12 -75 -25 -147 -31 -160 -5 -14 -32 -33 -72 -51 -87
-39 -178 -126 -218 -207 -84 -171 -20 -430 130 -522 105 -65 222 -91 318 -72
218 45 372 267 333 481 -16 86 -48 150 -115 232 l-56 67 52 119 c67 159 136
268 228 364 158 166 339 259 581 301 378 65 751 -77 1090 -414 127 -126 191
-214 215 -294 9 -28 26 -152 39 -276 l23 -224 -58 -106 c-95 -174 -127 -304
-114 -475 11 -150 161 -1014 179 -1033 6 -6 154 8 501 48 348 39 767 59 1690
80 1089 25 1819 60 1848 89 13 13 50 145 123 436 129 522 151 680 107 776 -11
26 -53 80 -91 121 -39 41 -76 87 -82 102 -5 15 -10 101 -10 192 l0 164 48 30
c89 58 307 159 392 184 138 39 272 57 424 58 128 1 148 -1 221 -26 161 -55
358 -158 570 -299 112 -75 320 -230 331 -249 3 -4 -6 -44 -21 -88 -31 -101
-33 -187 -4 -273 110 -330 507 -425 743 -177 61 64 90 114 111 197 85 324
-219 625 -545 538 -43 -11 -57 -12 -66 -2 -6 6 -62 80 -125 162 -156 206 -269
337 -423 490 -271 270 -489 424 -691 488 -123 38 -254 58 -440 64 -349 12
-743 -39 -1218 -158 -109 -27 -200 -49 -203 -49 -10 0 -2 186 12 271 53 309
272 880 464 1209 272 465 744 799 1490 1054 121 41 396 116 426 116 7 0 48
-33 92 -73 142 -130 262 -173 419 -149 230 36 385 205 408 447 8 84 -11 174
-52 245 -15 25 -59 77 -98 115 -80 79 -166 127 -259 144 -60 11 -65 11 -121 4z"/>
<path d="M4315 1459 c-631 -15 -1316 -73 -1375 -117 -43 -32 -61 -102 -56
-212 6 -120 25 -189 86 -316 138 -292 356 -493 740 -683 176 -88 245 -108 404
-119 l109 -8 156 149 c210 201 463 427 511 455 31 19 43 21 59 12 51 -27 376
-315 529 -468 135 -136 205 -159 375 -128 265 50 570 227 803 467 108 112 158
178 213 280 71 132 83 177 88 340 6 168 -2 211 -45 228 -227 91 -1458 148
-2597 120z m-89 -594 c117 -18 254 -51 267 -64 21 -21 -141 -236 -235 -313
-80 -66 -122 -81 -207 -76 -96 6 -173 36 -475 185 -262 130 -256 121 -121 184
84 39 199 73 300 88 101 15 359 12 471 -4z m1871 5 c147 -20 358 -92 393 -134
12 -16 11 -20 -10 -37 -37 -28 -320 -171 -440 -222 -134 -56 -228 -81 -279
-74 -77 10 -263 172 -355 308 -51 76 -49 94 17 114 50 15 185 40 257 48 79 9
344 6 417 -3z"/>
</g>
</svg>
